<?xml version="1.0" encoding="utf-8"?>
<?xml-stylesheet type="text/xsl" href="rss1.xsl"?>
<rss version="2.0" xmlns:atom="http://www.w3.org/2005/Atom" xmlns:content="http://purl.org/rss/1.0/modules/content/" xmlns:dc="http://purl.org/dc/elements/1.1/" xmlns:media="http://search.yahoo.com/mrss/">
<channel>
 <title>Getty</title>
 <link>http://www.gettyimg.com/</link>
 <atom:link href="http://www.gettyimg.com/" rel="self" type="application/rss+xml" />

 
                <item>
                <title><![CDATA[【Cinema Center】MOVIE - No.One.Will.Save.You.2023.1080p.HULU.WEB-DL.DDP5.1.H.264-Samuel]]></title>
                <link><![CDATA[https://sharemania.us/threads/no-one-will-save-you-2023-1080p-hulu-web-dl-ddp5-1-h-264-samuel.230334/]]></link>
                <description><![CDATA[<article>
<blockquote class="messageText SelectQuoteContainer ugc baseHtml">
<div style="text-align: center"><b><span style="font-size: 26px">No One Will Save You</span></b><br>
<img src="https://i.imgur.com/sO7o7uR.jpg" class="bbCodeImage LbImage" alt="[​IMG]" data-url="https://i.imgur.com/sO7o7uR.jpg" style=""><br>
<b><a href="https://i.imgur.com/Foc9nD5.jpg" target="_blank" class="externalLink" rel="nofollow">Alternate Artwork 1</a></b> | <b><a href="https://i.imgur.com/YtRX6HK.jpg" target="_blank" class="externalLink" rel="nofollow">Alternate Artwork 2</a></b> | <b><a href="https://i.imgur.com/d6on5LO.jpg" target="_blank" class="externalLink" rel="nofollow">Poster</a></b> | <b><a href="https://i.imgur.com/LnZctEI.jpg" target="_blank" class="externalLink" rel="nofollow">Key Art</a></b><br>
<br>
<b>Starring:</b> Kaitlyn Dever, Zack Duhame, Ginger Cressman • <b>Director:</b> Brian Duffield<br>
PG-13 • Thriller, Horror, Science Fiction • Movie • 2023<br>
5.1• HD<br>
<br>
<div class="bbCodeBlock bbCodeQuote">
<aside>
<blockquote class="quoteContainer"><div class="quote"><b><span style="font-size: 15px"><span style="font-family: 'Arial'">Description</span></span></b><br>
In this captivating sci-fi psychological thriller, a young woman who’s been alienated from her community finds herself in an action-packed face-off with a host of extraterrestrial beings who threaten her future while forcing her to deal with her past</div><div class="quoteExpand">Click to expand...</div></blockquote>
</aside>
</div>
<div class="bbCodeBlock bbCodeQuote">
<aside>
<blockquote class="quoteContainer"><div class="quote"><b><span style="font-size: 15px"><span style="font-family: 'Arial'">More Information</span></span></b><br>
<b>Starring:</b> Kaitlyn Dever, Zack Duhame, Ginger Cressman, Geraldine Singer, Rose Bianca Grue<br>
<b>Director:</b> Brian Duffield<br>
<br>
PG-13 • Thriller, Horror, Science Fiction • Movie • 2023<br>
5.1 • DA • HD • HDR • UHD</div><div class="quoteExpand">Click to expand...</div></blockquote>
</aside>
</div>
<div class="bbCodeBlock bbCodeQuote">
<aside>
<blockquote class="quoteContainer"><div class="quote"><b><span style="font-size: 15px">Source</span></b><br>
<img src="https://i.imgur.com/4uiLEFv.png" class="bbCodeImage LbImage" alt="[​IMG]" data-url="https://i.imgur.com/4uiLEFv.png" style=""></div><div class="quoteExpand">Click to expand...</div></blockquote>
</aside>
</div>
<div class="bbCodeBlock bbCodeQuote">
<aside>
<blockquote class="quoteContainer"><div class="quote"><b><span style="font-size: 15px">Release Name</span></b><br>
N<img src="styles/default/xenforo/smilies/what-48.png" class="mceSmilie" alt="o_O" title="Er... what?    o_O">ne.Will.Save.You.2023.1080p.HULU.WEB-DL.DDP5.1.H.264-Samuel</div><div class="quoteExpand">Click to expand...</div></blockquote>
</aside>
</div>
<div class="ToggleTriggerAnchor bbCodeSpoilerContainer">
<button type="button" class="button bbCodeSpoilerButton ToggleTrigger Tooltip JsOnly" data-target="> .SpoilerTarget"><span>Spoiler: <span class="SpoilerTitle">Media Information</span></span></button>
<div class="SpoilerTarget bbCodeSpoilerText">General<br>
Complete name : N<img src="styles/default/xenforo/smilies/what-48.png" class="mceSmilie" alt="o_O" title="Er... what?    o_O">ne.Will.Save.You.2023.1080p.HULU.WEB-DL.DDP5.1.H.264-Samuel.mkv<br>
Format : Matroska<br>
Format version : Version 4<br>
File size : 2.37 GiB<br>
Duration : 1 h 33 min<br>
Overall bit rate : 3 639 kb/s<br>
Frame rate : 24.000 FPS<br>
Encoded date : 2023-09-27 14:57:40 UTC<br>
Writing application : mkvmerge v72.0.0 ('Minuano (Six-eight)') 64-bit<br>
Writing library : libebml v1.4.4 + libmatroska v1.7.1<br>
<br>
Video<br>
ID : 1<br>
Format : AVC<br>
Format/Info : Advanced Video Codec<br>
Format profile : High@L4<br>
Format settings : CABAC / 4 Ref Frames<br>
Format settings, CABAC : Yes<br>
Format settings, Reference frames : 4 frames<br>
Codec ID : V_MPEG4/ISO/AVC<br>
Duration : 1 h 33 min<br>
Bit rate : 3 317 kb/s<br>
Width : 1 920 pixels<br>
Height : 1 080 pixels<br>
Display aspect ratio : 16:9<br>
Frame rate mode : Constant<br>
Frame rate : 24.000 FPS<br>
Color space : YUV<br>
Chroma subsampling : 4:2:0<br>
Bit depth : 8 bits<br>
Scan type : Progressive<br>
Bits/(Pixel*Frame) : 0.067<br>
Stream size : 2.16 GiB (91%)<br>
Default : Yes<br>
Forced : No<br>
<br>
Audio #1<br>
ID : 2<br>
Format : E-AC-3<br>
Format/Info : Enhanced AC-3<br>
Commercial name : Dolby Digital Plus<br>
Codec ID : A_EAC3<br>
Duration : 1 h 33 min<br>
Bit rate mode : Constant<br>
Bit rate : 256 kb/s<br>
Channel(s) : 6 channels<br>
Channel layout : L R C LFE Ls Rs<br>
Sampling rate : 48.0 kHz<br>
Frame rate : 31.250 FPS (1536 SPF)<br>
Compression mode : Lossy<br>
Stream size : 171 MiB (7%)<br>
Language : English<br>
Service kind : Complete Main<br>
Default : Yes<br>
Forced : No<br>
<br>
Audio #2<br>
ID : 3<br>
Format : AAC LC SBR<br>
Format/Info : Advanced Audio Codec Low Complexity with Spectral Band Replication<br>
Commercial name : HE-AAC<br>
Format settings : Explicit<br>
Codec ID : A_AAC-2<br>
Duration : 1 h 33 min<br>
Bit rate : 64.0 kb/s<br>
Channel(s) : 2 channels<br>
Channel layout : L R<br>
Sampling rate : 48.0 kHz<br>
Frame rate : 23.438 FPS (2048 SPF)<br>
Compression mode : Lossy<br>
Stream size : 42.7 MiB (2%)<br>
Title : Audio Description<br>
Language : English<br>
Default : No<br>
Forced : No<br>
<br>
Text #1<br>
ID : 4<br>
Format : UTF-8<br>
Codec ID : S_TEXT/UTF8<br>
Codec ID/Info : UTF-8 Plain Text<br>
Duration : 1 h 26 min<br>
Bit rate : 24 b/s<br>
Frame rate : 0.154 FPS<br>
Count of elements : 803<br>
Stream size : 15.4 KiB (0%)<br>
Title : SDH<br>
Language : English<br>
Default : No<br>
Forced : No<br>
<br>
Text #2<br>
ID : 5<br>
Format : UTF-8<br>
Codec ID : S_TEXT/UTF8<br>
Codec ID/Info : UTF-8 Plain Text<br>
Duration : 1 h 27 min<br>
Bit rate : 24 b/s<br>
Frame rate : 0.157 FPS<br>
Count of elements : 827<br>
Stream size : 16.0 KiB (0%)<br>
Language : Spanish<br>
Default : No<br>
Forced : No<br>
<br>
Menu<br>
01:28:00.022 : en:Credits</div>
</div><br>
<b>Screenshots</b><br>
<img src="https://i.imgur.com/fCBSMfx.png" class="bbCodeImage LbImage" alt="[​IMG]" data-url="https://i.imgur.com/fCBSMfx.png" style=""><br>
<br>
<b>Download</b><br>
<div class="bbCodeBlock bbCodeVfcHH HiddenContent">
<div class="attribution type">Hidden Content:</div>
<blockquote>You must reply before you can see the hidden data contained here.</blockquote>
</div></div>
<div class="messageTextEndMarker">&nbsp;</div>
</blockquote>
</article>]]></description>
                <author><![CDATA[Samuel]]></author>
                </item>

                
                <item>
                <title><![CDATA[【Requests】[REQ AUD] - [REQ AUD] Offset - SET IT OFF Dolby Atmos]]></title>
                <link><![CDATA[https://sharemania.us/threads/req-aud-offset-set-it-off-dolby-atmos.230333/]]></link>
                <description><![CDATA[<article>
<blockquote class="messageText SelectQuoteContainer ugc baseHtml">
Looking to split vocals and/or instrumentals out of the Dolby Atmos version of the album. <br>
<br>
Explicit please!
<div class="messageTextEndMarker">&nbsp;</div>
</blockquote>
</article>]]></description>
                <author><![CDATA[abhikbhatia]]></author>
                </item>

                
                <item>
                <title><![CDATA[【General Music Discussion】Help reading spectrograph]]></title>
                <link><![CDATA[https://sharemania.us/threads/help-reading-spectrograph.230335/]]></link>
                <description><![CDATA[<article>
<blockquote class="messageText SelectQuoteContainer ugc baseHtml">
I am trying to understand reading spectogaphs or grams or what ever they are called, I can pull them up on Spec but I don't know exactly I am looking for. Here are three from a Lossless WAV file 1) is the original WAV, 2) is Converted to ALAC and 3) is Converted to 320kbps MP3.<br>
<br>
<img src="https://i.imgur.com/Q8ufx0n.png" class="bbCodeImage LbImage" alt="[​IMG]" data-url="https://i.imgur.com/Q8ufx0n.png" style=""><br>
<img src="https://i.imgur.com/BUqG7Wl.png" class="bbCodeImage LbImage" alt="[​IMG]" data-url="https://i.imgur.com/BUqG7Wl.png" style=""><br>
<img src="https://i.imgur.com/zL4xL8I.png" class="bbCodeImage LbImage" alt="[​IMG]" data-url="https://i.imgur.com/zL4xL8I.png" style=""><br>
<br>
<img src="https://i.imgur.com/zL4x3L8I.png" class="bbCodeImage LbImage" alt="[​IMG]" data-url="https://i.imgur.com/zL4x3L8I.png" style="">
<div class="messageTextEndMarker">&nbsp;</div>
</blockquote>
</article>]]></description>
                <author><![CDATA[HeBop2012]]></author>
                </item>

                
                <item>
                <title><![CDATA[【Requests】[REQ AUD] - The Eras Tour Film - Audio]]></title>
                <link><![CDATA[https://sharemania.us/threads/the-eras-tour-film-audio.230332/]]></link>
                <description><![CDATA[<article>
<blockquote class="messageText SelectQuoteContainer ugc baseHtml">
Does anybody have an audio of the Eras Tour Film?
<div class="messageTextEndMarker">&nbsp;</div>
</blockquote>
</article>]]></description>
                <author><![CDATA[vinniecesarone]]></author>
                </item>

                </channel></rss>